<?xml version="1.0" standalone="no"?>
<!DOCTYPE svg PUBLIC "-//W3C//DTD SVG 20010904//EN"
 "http://www.w3.org/TR/2001/REC-SVG-20010904/DTD/svg10.dtd">
<svg version="1.0" xmlns="http://www.w3.org/2000/svg"
 width="160.000000pt" height="160.000000pt" viewBox="0 0 160.000000 160.000000"
 preserveAspectRatio="xMidYMid meet">
<metadata>
Created by potrace 1.14, written by Peter Selinger 2001-2017
</metadata>
<g transform="translate(0.000000,160.000000) scale(0.100000,-0.100000)"
fill="#000000" stroke="none">
<path d="M685 1552 c-114 -42 -207 -126 -257 -231 -35 -73 -42 -103 -42 -186
0 -53 22 -139 45 -170 38 -53 156 -305 163 -348 1 -7 5 -18 9 -24 5 -7 6 -13
4 -13 -3 0 1 -20 8 -45 8 -24 11 -44 7 -44 -26 4 -31 -2 -22 -25 5 -13 6 -27
3 -30 -12 -12 -2 -131 12 -138 10 -6 11 -16 5 -38 -5 -19 -5 -30 1 -30 6 0 6
-6 0 -18 -6 -11 -6 -24 0 -34 6 -11 6 -19 -1 -23 -19 -12 14 -45 45 -45 24 0
31 -5 32 -21 3 -33 29 -66 58 -71 36 -7 116 1 131 13 6 5 15 25 18 44 6 30 11
35 35 35 21 0 31 7 43 34 12 24 13 37 6 44 -8 8 -8 15 0 25 9 10 9 16 0 25 -8
8 -8 15 0 25 7 8 9 17 6 20 -3 3 -2 12 2 19 5 7 9 52 10 101 1 70 -1 87 -13
87 -9 0 -12 7 -9 18 3 9 7 35 11 57 3 21 9 42 13 45 4 3 8 15 9 28 2 13 11 42
22 65 10 23 26 60 35 82 9 21 20 42 24 45 14 10 101 196 112 240 23 86 -8 226
-68 310 -44 61 -139 142 -182 155 -3 1 -18 8 -35 15 -52 22 -183 23 -240 2z"/>
</g>
</svg>
